<svg viewBox="0 0 395.6594202199683 359.8823325799681" xmlns="http://www.w3.org/2000/svg">
<path d="M278.32816,27.888544 L224.66252,10 L81.55418,81.55418 L10,162.05263 L45.77709,278.32816 L126.275536,349.88232 L385.65942,242.55107 L314.10526,233.6068 L305.16098,260.4396 L260.4396,260.4396 L215.71825,305.16098 L117.33126,287.27243 L63.66563,269.38388 L45.77709,144.16408 L135.2198,144.16408 L99.44272,117.33126 L81.55418,126.275536 L90.49844,99.44272 L179.94116,99.44272 L215.71825,36.832817 z" fill="#5b65b3"/>
<path d="M340.93805,18.944271 L215.71825,36.832817 L224.66252,99.44272 L90.49844,99.44272 L144.16408,117.33126 L144.16408,162.05263 L45.77709,144.16408 L63.66563,269.38388 L117.33126,287.27243 L144.16408,251.49535 L215.71825,305.16098 L260.4396,260.4396 L314.10526,233.6068 L385.65942,242.55107 L287.27243,179.94116 L269.38388,54.72136 z" fill="#a64459"/>
<path d="M314.10526,233.6068 L385.65942,242.55107" fill="none" stroke="#00FF00" stroke-linecap="round" stroke-width="3"/>
<path d="M215.71825,305.16098 L260.4396,260.4396" fill="none" stroke="#00FF00" stroke-linecap="round" stroke-width="3"/>
<path d="M45.77709,144.16408 L63.66563,269.38388 L117.33126,287.27243" fill="none" stroke="#00FF00" stroke-linecap="round" stroke-width="3"/>
<path d="M90.49844,99.44272 L179.94116,99.44272" fill="none" stroke="#00FF00" stroke-linecap="round" stroke-width="3"/>
<path d="M215.71825,36.832817 L278.32816,27.888544" fill="none" stroke="#00FF00" stroke-linecap="round" stroke-width="3"/>
</svg>