<svg viewBox="0 0 3086.1089984284467 4203.597471659772" xmlns="http://www.w3.org/2000/svg">
<path d="M2761.8154,3327.544 L3076.109,2789.7527 L2985.313,2461.4902 L2412.6,2461.4902 L2573.2393,2161.1653 L2475.459,1036.6925 L2363.7102,324.29364 L2140.2124,44.921516 L1825.9188,10 L1763.06,289.37213 L869.0693,603.6658 L1846.8717,394.13666 L2161.1653,142.70175 L2300.8513,317.30933 L1944.652,945.8966 L2419.5845,966.8495 L2000.5264,1302.0961 L2007.5106,1525.5938 L1853.856,1190.3472 L1707.1857,1078.5984 L855.10065,1015.7396 L638.5873,1246.2217 L855.10065,1302.0961 L743.3518,1162.41 L1316.0647,1162.41 L1672.2642,1106.5355 L1225.2687,1979.5735 L1197.3315,1658.2955 L924.94366,1818.9344 L1267.1746,2175.134 L1539.5624,1441.7821 L2307.8357,1686.2327 L2482.4434,1832.9031 L2028.4635,2196.087 L1986.5577,2286.8828 L1923.699,2279.8984 L1818.9344,2363.7102 L1811.9502,2426.5688 L1714.1699,2447.5217 L1539.5624,2587.2078 L2391.6472,2650.0664 L2943.4072,2552.2864 L2517.3647,2950.3916 L2405.616,3097.062 L2650.0664,3187.858 L1693.217,4067.8801 L1693.217,3781.5237 L1651.3112,3585.9631 L1679.2484,4193.5977 z" fill="#5b65b3"/>
<path d="M1113.5199,980.8181 L1777.0287,1022.72394 L1930.6833,1357.9705 L2244.977,1106.5355 L1644.3269,785.2576 L2042.4321,352.23083 L1295.1117,778.2733 L1651.3112,436.04248 L1064.6298,561.75995 L666.5245,994.78674 L750.3361,813.1948 L142.70175,1413.8448 L401.12097,1665.2798 L79.84303,1693.217 L10,2035.4479 L450.01108,1797.9816 L198.57619,2056.401 L240.482,2251.9612 L701.446,1825.9188 L903.9908,2293.8672 L561.75995,2224.024 L869.0693,2608.1606 L1560.5153,2398.6316 L1036.6925,2817.6897 L1064.6298,3138.9678 L1288.1274,3131.9834 L1001.771,3704.6963 L1183.3629,4074.8643 L1371.9391,3523.1045 L1511.6251,3124.999 L1993.542,3369.4497 L1630.3583,3488.1829 L1714.1699,3879.304 L2293.8672,3243.7322 L2740.8625,2657.0508 L1853.856,3194.842 L1469.7194,2643.0823 L2098.3066,2140.2124 L2000.5264,1588.4525 L1693.217,1490.6722 L1707.1857,1937.6676 L1309.0803,2370.6943 L771.289,1770.0443 L1183.3629,1497.6565 L1211.3,1818.9344 L1602.421,1162.41 L1029.7083,1162.41 L966.8495,1441.7821 L470.964,1323.049 L1106.5355,757.32043 z" fill="#a64459"/>
<path d="M1651.3112,436.04248 L1064.6298,561.75995" fill="none" stroke="#00FF00" stroke-linecap="round" stroke-width="3"/>
<path d="M2000.5264,1302.0961 L2244.977,1106.5355" fill="none" stroke="#00FF00" stroke-linecap="round" stroke-width="3"/>
<path d="M1853.856,1190.3472 L1930.6833,1357.9705" fill="none" stroke="#00FF00" stroke-linecap="round" stroke-width="3"/>
<path d="M1316.0647,1162.41 L1029.7083,1162.41" fill="none" stroke="#00FF00" stroke-linecap="round" stroke-width="3"/>
<path d="M1197.3315,1658.2955 L1211.3,1818.9344" fill="none" stroke="#00FF00" stroke-linecap="round" stroke-width="3"/>
<path d="M2000.5264,1588.4525 L1693.217,1490.6722" fill="none" stroke="#00FF00" stroke-linecap="round" stroke-width="3"/>
<path d="M2028.4635,2196.087 L2098.3066,2140.2124" fill="none" stroke="#00FF00" stroke-linecap="round" stroke-width="3"/>
<path d="M1923.699,2279.8984 L1818.9344,2363.7102" fill="none" stroke="#00FF00" stroke-linecap="round" stroke-width="3"/>
<path d="M1714.1699,2447.5217 L1539.5624,2587.2078" fill="none" stroke="#00FF00" stroke-linecap="round" stroke-width="3"/>
<path d="M2517.3647,2950.3916 L2405.616,3097.062" fill="none" stroke="#00FF00" stroke-linecap="round" stroke-width="3"/>
<path d="M1693.217,3781.5237 L1651.3112,3585.9631" fill="none" stroke="#00FF00" stroke-linecap="round" stroke-width="3"/>
</svg>